# xmcd CD database file
#
# Track frame offsets:
#	150
#	16307
#	29815
#	52917
#	68032
#	89717
#	109117
#	127575
#	140977
#	154062
#	170827
#
# Disc length: 2466 seconds
#
# Revision: 2
# Processed by: cddbd v1.5.2PL0 Copyright (c) Steve Scherf et al.
# Submitted via: CDex 1.51
#
DISCID=9909a00b
DTITLE=Kenny Rogers - The Gambler
DYEAR=1900
DGENRE=
TTITLE0=The Gambler
TTITLE1=I Wish That I Could Hurt That Way Again
TTITLE2=(The) King Of Oak Street
TTITLE3=Making Music For Money
TTITLE4=The Hoodooin' of Miss Fannie DeBerry
TTITLE5=She Believes In Me
TTITLE6=Tennessee Bottle
TTITLE7=Sleep Tight, Goodnight Man
TTITLE8=A Little More Like Me (The Crusifixion)
TTITLE9=San Francisco Mable Joy
TTITLE10=Morgana Jones
EXTD=
EXTT0=(D.Schlitz)
EXTT1=(R.Vanhoy, D.Cook, C.Putnam)
EXTT2=
EXTT3=
EXTT4=
EXTT5=
EXTT6=
EXTT7=
EXTT8=
EXTT9=
EXTT10=
PLAYORDER=
